<svg width="48" height="48" viewBox="0 0 48 48" fill="none" xmlns="http://www.w3.org/2000/svg">
<g clip-path="url(#clip0_1690_600)">
<path d="M47.2795 29.8057C44.0741 42.663 31.0518 50.4877 18.193 47.2815C5.33959 44.0761 -2.48509 31.0529 0.721694 18.1967C3.92566 5.33806 16.948 -2.48721 29.8028 0.718162C42.6607 3.92353 50.4849 16.9481 47.2791 29.8059L47.2794 29.8057H47.2795Z" fill="#F7931A"/>
<path d="M34.5831 20.5807C35.0607 17.3868 32.6291 15.67 29.3041 14.5247L30.3828 10.1983L27.7492 9.54205L26.6991 13.7545C26.0068 13.5818 25.2958 13.4191 24.5891 13.2578L25.6467 9.01756L23.0148 8.36133L21.9355 12.6863C21.3626 12.5559 20.7999 12.4269 20.2539 12.2911L20.2569 12.2775L16.6252 11.3706L15.9246 14.1834C15.9246 14.1834 17.8785 14.6313 17.8373 14.6589C18.9038 14.925 19.0966 15.631 19.0646 16.1906L17.8359 21.1194C17.9093 21.138 18.0046 21.165 18.1097 21.2072C18.0218 21.1854 17.9283 21.1616 17.8313 21.1384L16.1091 28.0429C15.9788 28.3669 15.648 28.8531 14.9023 28.6685C14.9287 28.7067 12.9882 28.1908 12.9882 28.1908L11.6807 31.2054L15.1079 32.0598C15.7454 32.2197 16.3702 32.387 16.9855 32.5443L15.8957 36.9203L18.5263 37.5765L19.6055 33.247C20.3242 33.442 21.0216 33.622 21.7043 33.7916L20.6287 38.1008L23.2624 38.757L24.3521 34.3892C28.843 35.2391 32.2197 34.8965 33.6411 30.8345C34.7864 27.5641 33.584 25.6778 31.2214 24.4477C32.9422 24.0508 34.2384 22.919 34.584 20.581L34.5832 20.5804L34.5831 20.5807ZM28.5659 29.0183C27.752 32.2887 22.2457 30.5208 20.4605 30.0775L21.9067 24.28C23.6918 24.7257 29.4165 25.6076 28.566 29.0183H28.5659ZM29.3804 20.5333C28.6379 23.508 24.055 21.9967 22.5683 21.6261L23.8795 16.3682C25.3661 16.7388 30.1538 17.4304 29.3806 20.5333H29.3804Z" fill="white"/>
</g>
<defs>
<clipPath id="clip0_1690_600">
<rect width="48" height="48" fill="white"/>
</clipPath>
</defs>
</svg>
