<svg width="48" height="48" viewBox="0 0 48 48" fill="none" xmlns="http://www.w3.org/2000/svg">
<path d="M24 48C37.2548 48 48 37.2548 48 24C48 10.7452 37.2548 0 24 0C10.7452 0 0 10.7452 0 24C0 37.2548 10.7452 48 24 48Z" fill="#627EEA"/>
<path d="M24.748 5.99683V19.3025L35.9935 24.3282L24.748 5.99683Z" fill="white" fill-opacity="0.602"/>
<path d="M24.7484 5.99683L13.5029 24.3282L24.7484 19.3025V5.99683Z" fill="white"/>
<path d="M24.748 32.9491V41.9901L36.0001 26.4209L24.748 32.9491Z" fill="white" fill-opacity="0.602"/>
<path d="M24.7484 41.9901V32.9491L13.5029 26.4209L24.7484 41.9901Z" fill="white"/>
<path d="M24.748 30.8561L35.9935 24.3279L24.748 19.3022V30.8561Z" fill="white" fill-opacity="0.2"/>
<path d="M13.5029 24.3279L24.7484 30.8561V19.3022L13.5029 24.3279Z" fill="white" fill-opacity="0.602"/>
</svg>
